<?xml version="1.0" standalone="no"?>
<!DOCTYPE svg PUBLIC "-//W3C//DTD SVG 20010904//EN"
 "http://www.w3.org/TR/2001/REC-SVG-20010904/DTD/svg10.dtd">
<svg version="1.0" xmlns="http://www.w3.org/2000/svg"
 width="348.000000pt" height="224.000000pt" viewBox="0 0 348.000000 224.000000"
 preserveAspectRatio="xMidYMid meet">
<metadata>
Created by potrace 1.16, written by Peter Selinger 2001-2019
</metadata>
<g transform="translate(0.000000,224.000000) scale(0.100000,-0.100000)"
fill="#000000" stroke="none">
<path d="M1570 1615 l0 -45 -90 0 -90 0 0 -45 0 -45 -45 0 -45 0 0 -45 0 -45
-45 0 -45 0 0 -45 0 -45 -45 0 -45 0 0 -90 0 -90 225 0 225 0 0 45 0 46 -180
-3 -180 -3 0 48 0 47 45 0 45 0 0 45 0 45 45 0 45 0 0 45 0 45 90 0 90 0 0 45
0 45 140 0 140 0 0 -45 0 -45 45 0 45 0 0 45 0 45 90 0 90 0 0 -45 0 -45 45 0
45 0 0 -45 0 -45 -45 0 -45 0 0 -90 0 -90 45 0 45 0 0 90 0 90 45 0 45 0 0
-141 0 -141 -177 3 -178 4 -3 -49 -3 -48 -45 4 -44 3 0 -47 0 -48 -50 0 -51 0
2 -45 3 -45 45 0 46 0 -2 -45 -2 -45 48 0 49 0 -2 -42 -2 -43 -225 0 -224 0 2
43 2 42 -94 0 -95 0 0 45 0 45 140 0 140 0 0 45 0 45 -230 0 -230 0 0 -45 0
-45 45 0 45 0 0 -45 0 -45 45 0 45 0 0 -45 0 -45 90 0 90 0 0 -45 0 -45 230 0
230 0 0 45 0 45 225 0 225 0 0 45 0 45 45 0 44 0 3 92 3 93 43 -1 42 -1 0 44
0 43 -45 0 -45 0 0 48 0 47 -45 -3 -45 -4 0 141 0 141 -45 0 -45 0 0 45 0 45
-45 0 -45 0 0 45 0 45 -45 0 -45 0 0 45 0 45 -275 0 -275 0 0 -45z"/>
<path d="M1760 1346 l0 -136 45 0 45 0 0 -48 0 -47 46 3 45 4 -3 42 c-3 41 -3
41 -45 44 l-42 3 -3 132 -3 132 -42 3 -43 3 0 -135z"/>
<path d="M1030 1024 l0 -92 43 2 42 2 3 86 3 86 -46 4 -45 3 0 -91z"/>
<path d="M1573 1104 c-2 -6 -3 -46 -1 -90 l3 -79 43 -3 42 -3 0 94 0 94 -41
-1 c-23 -1 -43 -6 -46 -12z"/>
</g>
</svg>
