<?xml version="1.0" standalone="no"?>
<!DOCTYPE svg PUBLIC "-//W3C//DTD SVG 20010904//EN"
 "http://www.w3.org/TR/2001/REC-SVG-20010904/DTD/svg10.dtd">
<svg version="1.0" xmlns="http://www.w3.org/2000/svg"
 width="900.000000pt" height="520.000000pt" viewBox="0 0 900.000000 520.000000"
 preserveAspectRatio="xMidYMid meet">
<metadata>
Created by potrace 1.16, written by Peter Selinger 2001-2019
</metadata>
<g transform="translate(0.000000,520.000000) scale(0.100000,-0.100000)"
fill="#000000" stroke="none">
<path d="M5076 4473 c-35 -10 -127 -74 -136 -96 -6 -12 -14 -29 -18 -37 -24
-41 -28 -59 -27 -112 2 -68 18 -95 81 -140 25 -18 68 -52 95 -75 27 -24 62
-49 77 -57 33 -17 101 -86 84 -86 -6 0 -30 10 -54 23 -24 12 -90 38 -148 56
-58 19 -112 36 -120 39 -8 3 -26 7 -40 9 -39 4 -93 14 -110 20 -8 3 -28 5 -43
4 -15 -2 -33 2 -40 7 -25 21 -432 41 -450 23 -6 -6 -43 -11 -82 -11 -40 0 -75
-3 -79 -7 -4 -5 -44 -13 -89 -20 -45 -7 -91 -15 -102 -17 -11 -3 -47 -12 -80
-19 -55 -12 -93 -25 -137 -48 -10 -5 -23 -9 -29 -9 -15 0 -238 -110 -244 -121
-3 -5 -27 -18 -52 -29 -26 -11 -66 -36 -89 -55 -23 -19 -46 -35 -51 -35 -4 0
-43 -31 -85 -69 l-77 -69 -354 0 c-231 0 -369 -4 -396 -12 -23 -6 -51 -8 -61
-5 -20 6 -40 -10 -89 -75 -18 -24 -22 -38 -17 -68 3 -20 7 -62 7 -92 1 -30 4
-59 8 -65 3 -5 11 -55 18 -110 24 -201 69 -415 94 -450 4 -5 10 -27 14 -48 4
-20 11 -39 15 -42 5 -3 12 -30 15 -60 4 -31 11 -58 17 -61 5 -3 6 -14 3 -24
-3 -10 -1 -21 5 -25 5 -3 10 -16 10 -29 0 -12 3 -26 8 -30 4 -4 7 -11 7 -14 2
-22 22 -76 55 -146 13 -28 23 -57 23 -65 0 -23 105 -229 139 -272 15 -20 28
-40 28 -44 0 -12 55 -77 185 -223 26 -28 52 -52 56 -52 5 0 27 -17 48 -37 21
-21 60 -54 85 -73 25 -19 52 -41 60 -48 8 -6 18 -12 22 -12 4 0 18 -9 30 -21
36 -34 222 -129 252 -129 6 0 23 -6 39 -14 27 -14 80 -30 184 -54 26 -6 84
-14 130 -18 46 -4 90 -12 98 -18 20 -15 742 -16 762 0 8 6 50 14 93 18 44 3
94 10 110 15 17 5 51 14 76 21 25 6 63 15 85 21 21 6 44 14 50 18 5 5 25 11
43 15 19 3 46 14 60 24 15 10 56 31 92 47 81 37 259 153 323 212 l34 30 409 6
c340 4 417 8 454 21 75 27 120 49 120 58 0 4 6 8 13 8 22 0 63 52 79 100 20
57 29 118 19 125 -5 2 -6 15 -4 29 3 13 0 27 -6 30 -6 4 -11 16 -11 28 0 11
-9 33 -21 49 -17 24 -18 33 -9 44 7 8 18 15 24 15 30 0 116 118 116 159 0 12
7 33 16 46 14 22 14 27 0 56 -9 18 -16 43 -16 56 0 65 -96 169 -197 211 -45
19 -70 22 -200 22 -81 0 -154 4 -162 9 -8 6 -15 34 -18 77 -3 38 -9 89 -14
114 -6 25 -13 59 -16 75 -3 17 -9 35 -13 40 -4 6 -11 28 -14 50 -15 80 -52
176 -133 342 -13 26 -14 35 -3 48 7 8 18 15 25 15 21 0 75 69 76 98 3 72 -7
99 -56 158 -5 7 -28 36 -50 65 -22 29 -73 86 -112 126 -40 40 -73 76 -73 80 0
4 -36 44 -80 89 -44 45 -80 86 -80 92 0 6 -9 14 -20 17 -11 3 -20 12 -20 18 0
7 -25 37 -56 67 -84 82 -234 248 -234 259 0 25 -110 56 -154 44z m-431 -563
c17 -5 59 -13 95 -19 172 -26 215 -44 148 -62 -89 -24 -235 -117 -323 -205
-129 -130 -169 -234 -169 -434 1 -126 13 -206 39 -257 8 -15 15 -34 15 -41 0
-26 71 -123 136 -186 63 -62 160 -122 240 -149 40 -14 46 -9 -60 -58 -32 -14
-79 -53 -133 -108 -45 -47 -83 -90 -83 -94 0 -5 -15 -27 -34 -48 -18 -22 -48
-66 -65 -98 -27 -51 -31 -69 -31 -132 1 -86 14 -128 63 -201 70 -106 159 -185
263 -234 102 -48 138 -53 347 -54 128 0 186 -3 182 -10 -10 -17 -81 -60 -205
-127 -77 -41 -231 -103 -257 -103 -12 0 -24 -4 -28 -9 -3 -5 -31 -12 -63 -16
-31 -3 -65 -10 -74 -15 -10 -5 -82 -12 -160 -16 -79 -3 -152 -10 -163 -15 -36
-17 -625 10 -670 30 -11 5 -45 12 -75 16 -57 7 -133 27 -187 51 -17 8 -34 14
-38 14 -27 0 -254 131 -302 175 -12 11 -46 38 -75 60 -69 53 -175 158 -218
219 -19 26 -45 59 -58 73 -21 23 -132 207 -132 219 0 3 -13 34 -30 69 -16 35
-30 68 -30 73 0 5 -7 23 -16 41 -20 40 -11 51 19 25 79 -70 230 -134 412 -175
83 -19 473 -19 535 0 89 27 166 56 206 78 70 39 197 167 262 262 107 158 130
295 84 496 -29 128 -142 283 -277 379 -54 39 -225 126 -247 126 -14 0 -133 38
-160 51 -10 5 -30 9 -45 9 -16 1 -39 7 -52 14 l-24 14 24 12 c13 7 26 16 29
19 9 11 79 61 85 61 3 0 23 13 43 29 38 30 187 111 204 111 5 0 28 9 51 19 23
10 67 27 97 36 30 10 64 22 75 26 31 12 113 30 200 43 44 7 87 15 95 19 38 17
475 14 535 -3z m575 -222 c30 -10 66 -27 80 -36 14 -9 49 -29 78 -44 175 -92
326 -231 411 -378 33 -57 81 -156 81 -168 0 -7 4 -20 9 -30 15 -27 39 -112 51
-177 18 -97 27 -139 34 -156 4 -10 2 -20 -4 -24 -6 -4 -102 -11 -213 -16 -111
-5 -272 -14 -357 -20 -85 -5 -162 -10 -170 -11 -63 -2 -208 19 -270 39 -95 32
-203 87 -254 130 -54 45 -122 162 -136 232 -6 31 -16 72 -22 92 -10 37 -7 97
10 184 15 72 28 102 67 149 19 24 35 48 35 54 0 6 10 17 23 23 12 7 42 30 67
51 53 46 118 83 205 119 54 22 196 16 275 -13z m-2252 -288 c128 -5 240 -14
250 -18 9 -5 36 -12 60 -16 24 -3 51 -10 60 -15 9 -5 55 -24 102 -42 121 -45
169 -71 241 -129 172 -137 253 -358 191 -520 -34 -90 -50 -115 -122 -195 -93
-102 -152 -150 -224 -179 -129 -52 -160 -57 -326 -53 -174 5 -256 16 -356 48
-70 22 -186 78 -215 105 -8 8 -19 14 -23 14 -21 0 -154 144 -178 192 -41 81
-58 124 -58 147 0 12 -4 21 -9 21 -5 0 -11 12 -14 28 -3 15 -13 65 -22 112
-23 117 -24 120 -41 255 -29 230 -29 223 1 235 14 5 77 11 138 11 62 1 141 5
177 9 36 4 81 6 100 4 19 -3 140 -9 268 -14z"/>
<path d="M5468 3283 c-63 -67 -72 -93 -72 -229 1 -164 17 -202 116 -265 73
-47 94 -40 143 51 l40 75 0 130 c0 150 -12 186 -83 243 -57 45 -97 44 -144 -5z"/>
</g>
</svg>
